<svg xmlns="http://www.w3.org/2000/svg" xmlns:xlink="http://www.w3.org/1999/xlink" width="52" height="50" viewBox="0 0 52 50">
    <defs>
        <path id="a" d="M.099.545h1v1h-1z"/>
        <path id="b" d="M28.645 37.131c.125-.022.138.018.11.112l-.102.343-.216-.29c-.057-.076-.053-.117.058-.137l.15-.028zm1.794.941c-.06-.22.133-.252.232-.402l.106.39c-.058.096-.105.15-.151.163-.082.023-.156-.036-.187-.15zm-14.72 1.204c.767-.205 1.022.834 1.022.834l.527 2.946s-.32-1.114-1.279-1.468c-1.377-.508-1.252-1.37-1.252-1.37.157-.781.981-.942.981-.942zm-.366 2.66s1.99.93 1.546 2.326c-.28.877-1.697 1.153-3.121.585-.946-.378-2.784-1.45-3.712-3.362l2.377.04-.128-2.528s1.505 2.311 3.038 2.938zm19.674-.348c-.959.354-1.279 1.468-1.279 1.468l.527-2.946s.255-1.04 1.023-.834c0 0 .825.16.981.942 0 0 .125.862-1.252 1.37zm3.603-.17l2.328.105c-.986 1.792-3.265 2.98-4.215 3.348-1.43.553-2.378.236-2.648-.644-.429-1.401 1.571-2.311 1.571-2.311 1.539-.61 3.069-2.905 3.069-2.905l-.105 2.408zm-12.756 8.037l-.123-.042L27.5 43.63a.267.267 0 0 1 .506.172l-2.13 5.654zm8.51-12.11h.02c.116.01.163-.036.175-.182l.038-.458c.01-.127-.003-.157-.085-.197l-.073-.039.006-.07.476-.135.059.005-.027.316h.006c.12-.194.173-.272.269-.264a.171.171 0 0 1 .055.014l.215.1a.981.981 0 0 1-.16.286 1.04 1.04 0 0 0-.222-.088c-.056-.006-.107.03-.176.111l-.04.456c-.011.136.027.191.173.204l.074.006-.008.09-.782-.066.008-.09zm-.92.238c-.302.06-.553-.131-.62-.466-.073-.365.122-.671.468-.74a.479.479 0 0 1 .375.063c.196.13.149.3.256.33l.016.08-.766.154c.068.224.257.369.42.336.103-.02.19-.1.298-.267l.074.04c-.111.25-.308.426-.521.47zm-1.27.334c-.184.053-.335-.014-.403-.248l-.19-.65-.143.043-.02-.072a.847.847 0 0 0 .274-.532l.078-.023.099.34.355-.103.002.16-.314.091.19.655c.03.101.089.131.167.108.065-.019.116-.078.167-.196l.06.066a.5.5 0 0 1-.321.36zm-1.15.328c-.1.029-.191-.017-.235-.116-.08.136-.136.22-.29.262-.192.053-.344-.026-.392-.2a.334.334 0 0 1 .026-.242c.093-.161.32-.194.485-.425l-.027-.102c-.03-.105-.122-.161-.221-.136-.095.026-.145.112-.084.248l-.276.19c-.055-.105-.066-.188-.014-.277.067-.119.27-.25.405-.286.133-.035.464-.044.533.212l.14.515c.026.095.053.12.094.108.022-.006.034-.015.064-.052l.059.054c-.06.116-.176.224-.266.248zm-1.51-1.042l-.303 1.508-.18.034-.41-.556-.176.663-.186.034-.937-1.3c-.116-.163-.157-.212-.304-.185l-.022.003-.02-.108.736-.135.02.108c-.112.034-.114.084-.042.184l.709.976.112-.396-.454-.627c-.1-.137-.142-.166-.223-.154l-.02-.11 1.216-.22.02.108c-.102.04-.13.08-.174.24l-.128.448.4.538.205-1.041c.033-.164-.01-.237-.175-.209l-.021-.108.56-.103.02.108c-.131.034-.184.104-.223.3zm-3.746 1.083a1.126 1.126 0 0 0-.228-.072c-.056 0-.105.04-.167.127l-.004.456c-.001.136.04.19.187.192h.074l-.001.09-.784-.007v-.09h.02c.116.002.159-.05.16-.197l.004-.46c0-.127-.016-.155-.101-.189l-.075-.032v-.07l.464-.17h.06l-.003.316h.006c.106-.203.152-.285.248-.283a.16.16 0 0 1 .056.009l.222.084a.975.975 0 0 1-.138.296zm-1.423.172l-.777-.087c-.004.236.134.43.299.448.104.012.21-.036.365-.163l.059.06c-.182.204-.424.313-.64.29-.306-.035-.487-.292-.45-.633.04-.37.32-.602.67-.563a.48.48 0 0 1 .339.173c.147.184.05.333.144.394l-.01.08zm-1.587-.614l-.322-.062-.128.672c-.02.102.019.155.099.17.066.014.138-.016.237-.098l.024.085a.498.498 0 0 1-.45.177c-.188-.036-.293-.166-.248-.404l.128-.666-.147-.028.014-.072a.849.849 0 0 0 .486-.35l.08.015-.066.347.363.07-.07.144zm-1.37-.1l-.086-.023c-.013-.162-.084-.266-.202-.294-.071-.019-.136.013-.151.072-.055.225.483.365.392.741-.05.203-.23.31-.441.258-.19-.045-.243-.1-.282-.11-.016-.002-.035.004-.063.023l-.08-.02.056-.355.087.021c.009.165.11.277.228.306.077.019.156-.023.173-.091.046-.19-.453-.381-.372-.712.05-.21.258-.306.515-.244a.873.873 0 0 1 .293.133l-.066.294zm-1.462.322a.2.2 0 0 0 .085.006l-.023.084-.47-.015-.051-.014.06-.218c-.291.09-.444.111-.547.084-.198-.056-.247-.26-.193-.456l.125-.453c.03-.107.025-.134-.015-.169l-.05-.042.018-.063.419.008.055.015-.192.694c-.045.163-.02.283.102.317.065.018.17.006.306-.035l.136-.492c.029-.106.02-.139-.055-.185l-.114-.072.017-.064.528.038.055.016-.231.832c-.037.136-.031.166.035.184zm-1.717-.412l-.021.088-.68-.165.022-.088.027.007c.115.027.166-.016.2-.154l.276-1.13c.029-.122.026-.146-.031-.183l-.108-.073.02-.079.508-.022.049.013-.38 1.554c-.031.13-.008.202.118.233zm-1.126-.216a.569.569 0 0 0-.167-.014c-.133.005-.272.062-.483.07-.578.02-1.041-.362-1.06-.873-.02-.518.44-.942 1.044-.964.293-.011.49.098.546.096.022-.002.039-.011.055-.032l.07-.002.045.492-.11.005c-.101-.276-.307-.427-.578-.416-.403.015-.67.33-.654.775.017.453.34.791.743.776.26-.01.469-.166.574-.428l.113-.004c-.017.15-.076.37-.138.52zm19.344 1.968l.444-1.575.433-1.536.214-.76c-.292-.33-.863-1.123-2.275-1.014-2.535.194-6.195 2.094-9.831 2.094-3.69 0-7.317-1.87-9.831-2.095-1.41-.126-1.983.684-2.275 1.015l1.092 3.87s.33-.949 1.962-.949c1.58 0 5.082 1.662 9.052 1.662 4.408 0 7.472-1.662 9.053-1.662 1.63 0 1.962.95 1.962.95zm-.252-8.95c2.952-.272 4.67-1.464 4.67-1.464-1.77 2.252-4.67 1.464-4.67 1.464m.692 1.722s.137.208.41.368c.131.086.308.135.488.16a.997.997 0 0 0 .544-.08c.118-.05.177-.082.26-.14a1.242 1.242 0 0 0 .426-.659c.054-.22.043-.403.032-.492-.016-.059-.022-.1-.022-.1s.136.207.41.367c.131.086.307.135.488.161.177.027.388-.008.543-.08.118-.052.177-.082.26-.142a1.242 1.242 0 0 0 .425-.659c.077-.307.025-.55.025-.55s.178.184.196.571a1.177 1.177 0 0 1-.166.632c-.065.105-.15.202-.246.29a1.508 1.508 0 0 1-.324.212 1.356 1.356 0 0 1-.775.061 1.186 1.186 0 0 1-.566-.325c-.04-.039-.06-.078-.089-.118.012.06.025.118.03.192a1.183 1.183 0 0 1-.167.631c-.065.105-.15.202-.247.291a1.51 1.51 0 0 1-.323.211 1.35 1.35 0 0 1-.776.061 1.182 1.182 0 0 1-.566-.324 1.014 1.014 0 0 1-.232-.38c-.033-.1-.038-.159-.038-.159m1.736 2.863s.173.156.456.236c.28.08.681.06.958-.177a.93.93 0 0 0 .325-.408c.062-.158.106-.322.098-.469-.003-.296-.108-.502-.108-.502l.021.015c-.013-.024-.027-.045-.033-.059a1.27 1.27 0 0 1-.706.053 1.113 1.113 0 0 1-.528-.303.952.952 0 0 1-.216-.355c-.03-.093-.035-.148-.035-.148s.127.195.381.344c.124.08.288.126.456.15a.93.93 0 0 0 .507-.076c.11-.047.165-.076.242-.132a1.154 1.154 0 0 0 .397-.614c.072-.286.023-.513.023-.513s.167.171.183.533a1.11 1.11 0 0 1-.155.59c-.06.097-.14.187-.23.27a1.416 1.416 0 0 1-.3.196c.063.048.211.15.423.208.278.081.681.06.957-.177a.932.932 0 0 0 .326-.408c.062-.157.106-.322.097-.469-.003-.296-.107-.502-.107-.502s.204.123.311.47c.043.167.07.387 0 .608-.046.151-.144.3-.258.432.083.043.22.134.348.332.087.15.172.355.163.587a1.282 1.282 0 0 1-.229.68 1.263 1.263 0 0 1-.59.405c-.22.072-.44.047-.609.005a.94.94 0 0 1-.366-.198c-.073-.064-.105-.109-.105-.109s.208.104.503.104c.29.003.672-.126.874-.429a.928.928 0 0 0 .204-.48 1.14 1.14 0 0 0-.033-.478 1.228 1.228 0 0 0-.188-.388c-.039.043-.073.094-.118.13a1.274 1.274 0 0 1-.678.232 1.102 1.102 0 0 1-.587-.159c-.055-.032-.094-.07-.133-.106.036.062.071.136.1.227.042.168.07.39-.002.61a1.265 1.265 0 0 1-.403.592 1.254 1.254 0 0 1-.677.232 1.095 1.095 0 0 1-.588-.159.95.95 0 0 1-.299-.289c-.053-.08-.072-.134-.072-.134m3.86 1.811s.231-.003.492-.139c.134-.06.26-.175.37-.304a.927.927 0 0 0 .205-.469c.02-.118.025-.18.02-.274a1.166 1.166 0 0 0-.307-.663 1.287 1.287 0 0 0-.335-.25c-.018-.004-.04-.005-.056-.009-.094-.023-.143-.049-.143-.049s.232-.003.493-.139a1.13 1.13 0 0 0 .37-.305.938.938 0 0 0 .206-.468.93.93 0 0 0-.04-.528 1.166 1.166 0 0 0-.249-.409c-.204-.213-.42-.293-.42-.293s.232-.049.546.13a1.09 1.09 0 0 1 .52.783c.007.038.008.082.01.126.095-.02.223-.032.388-.003a1.1 1.1 0 0 1 .54.282c.038.037.064.087.098.131a1.31 1.31 0 0 0 .212-.307c.07-.129.104-.296.115-.465a.936.936 0 0 0-.112-.499 1.08 1.08 0 0 0-.148-.232 1.165 1.165 0 0 0-.641-.35c-.29-.05-.512.015-.512.015s.157-.178.516-.22c.173-.013.394 0 .598.11.101.053.197.126.286.21.084.08.172.203.218.285.018.038.021.075.035.114a.913.913 0 0 1 .441-.16c.173-.013.394 0 .598.11.082.043.157.105.231.17.037-.076.105-.23.126-.439.033-.288-.057-.68-.336-.912a.94.94 0 0 0-.456-.25 1.15 1.15 0 0 0-.479-.017c-.29.053-.476.19-.476.19s.087-.22.41-.385c.157-.07.37-.135.598-.102.222.025.472.138.652.295.176.176.296.403.343.627a1.11 1.11 0 0 1-.056.605.95.95 0 0 1-.305.402c.011.01.023.015.034.025.084.08.173.204.22.286.112.243.141.485.11.716a1.109 1.109 0 0 1-.264.548.942.942 0 0 1-.482.287s.184-.14.314-.405c.07-.129.104-.296.115-.465a.93.93 0 0 0-.112-.499 1.072 1.072 0 0 0-.148-.23 1.153 1.153 0 0 0-.641-.351 1.26 1.26 0 0 0-.424-.003c.061.19.088.378.063.558a1.113 1.113 0 0 1-.263.548.951.951 0 0 1-.338.242l-.003.001c.024.034.053.062.074.1.058.1.105.245.126.336.037.266-.006.506-.105.717a1.103 1.103 0 0 1-.41.447.953.953 0 0 1-.395.132c-.097.01-.152.002-.152.002s.218-.08.42-.296c.105-.102.185-.252.245-.41a.93.93 0 0 0 .04-.51 1.106 1.106 0 0 0-.074-.265 1.162 1.162 0 0 0-.83-.634c0 .055-.003.11-.008.151a1.245 1.245 0 0 1-.337.641 1.106 1.106 0 0 1-.536.285c-.032.007-.057.004-.087.007.058.02.12.044.187.082.146.094.316.236.414.445a1.247 1.247 0 0 1 .112.697 1.25 1.25 0 0 1-.336.641 1.096 1.096 0 0 1-.537.285.936.936 0 0 1-.416-.007c-.094-.023-.143-.049-.143-.049m4.396-7.134a.714.714 0 0 0-.399-.037.952.952 0 0 0-.35.132c-.196.124-.297.283-.297.283s-.02-.194.16-.429a.89.89 0 0 1 .41-.285c.174-.056.403-.057.59 0 .192.074.358.204.47.358a.895.895 0 0 1 .151.475c.001.297-.132.438-.132.438s.017-.188-.064-.405c-.079-.214-.269-.458-.539-.53m-22.623 16.33l.743-2.603c.05-.146.11-.277.178-.394-.747-.735-2.146-.278-2.217-.255-.083.029-2.038.717-1.532 2.208l1.11 3.9-.124.042-1.49-3.77c-.543-1.597.982-2.586 1.865-2.885.69-.234 1.949-.373 2.724.34.775-.713 2.033-.574 2.723-.34.883.299 2.408 1.288 1.866 2.885l-1.49 3.77-.125-.042 1.11-3.9c.506-1.491-1.449-2.18-1.532-2.208-.07-.023-1.47-.48-2.217.255.069.117.129.248.178.394l.86 3.165-.123.04-1.242-3.034a1.773 1.773 0 0 0-.008-.024 1.775 1.775 0 0 0-.009.024l-1.154 2.742.924 3.055-.123.042-1.046-2.774-.027-.01.01-.034-1.069-2.836a.267.267 0 0 1 .506-.172l.731 2.419zm11.592-17.542c.028-.107.072-.21.094-.318.06-.292-.044-.597-.205-.849a.909.909 0 0 1 .412.128 1.967 1.967 0 0 0-.285-.706c.153-.035.314-.037.468-.005a1.103 1.103 0 0 1 .033-.388c.231.008.465-.037.676-.132-.02.148-.043.296-.064.445.344-.04.672-.209.906-.463l.047.375c.423-.272.787-.633 1.232-.867.445-.234 1.025-.315 1.43-.017a1.36 1.36 0 0 0 .155-.54c.273.236.732.09.863-.23-.02.47-.274.92-.366 1.38a7.092 7.092 0 0 0-.123 1.81.79.79 0 0 0 .084.362c.07.114.19.193.25.312.104.211-.015.46-.03.694-.015.225.143 2.774 2.14 2.441 2.208-.368 2.303-3.332 1.854-4.878-.566-1.944-.409-3.624.144-3.992.738-.492 1.893-.003 2.011.576-.328-.21-1.346-.457-1.393.415-.066 1.214 1.538 2.923 1.88 5.185.212 1.401.617 5.467-2.99 7.59-2.684 1.58-6.588.436-7.18-.243.208-.318.64-1.183-.034-1.71a6.026 6.026 0 0 1-1.129-1.193c-.762-1.035-.84-2.405-.889-3.69l-.03-.83c-.01-.222-.018-.447.04-.662zm10.245-8.839c.391-.12.723-.484.924-.84-.078.463.166.944.598 1.128.432.184 1.05-.087 1.416-.38-.196.5-.18 1.027.147 1.298.37.304 1.091.122 1.384.1-.16.326-.354.853-.28 1.183.086.381.4.56.742.717-1.084-.207-1.735-.002-2.689.313a1.141 1.141 0 0 0-.176-.34c.42-.272.868-.5 1.34-.665a5.492 5.492 0 0 0-1.73.305 1.387 1.387 0 0 0-.096-.06c.251-.56.581-1.08.712-1.733-.595.405-1.16.887-1.52 1.507a1.38 1.38 0 0 0-.092 0c-.086-.666-.103-1.278-.445-1.953-.144.57-.097 1.72-.027 2.006a4.593 4.593 0 0 0-.568.146c-.013-.503-.038-1.009-.155-1.499-.117-.489-.33-.965-.678-1.329.366.181.802.216 1.193.096zM33.418 26.24a.267.267 0 0 1 .505.171l-3.154 9.295-.624.18 3.273-9.645zm-4.663 15.383a.267.267 0 0 1-.505-.17l.566-1.656c.204-.039.406-.078.604-.12l-.665 1.946zM17.606 26.24l3.273 9.646a46.395 46.395 0 0 1-.624-.18l-3.154-9.294a.267.267 0 0 1 .505-.172zm4.662 15.383l-.665-1.947c.198.043.4.082.604.121l.566 1.655a.267.267 0 0 1-.505.171zm1.561-3.662c.121.014.182.154.161.37l-.399-.044c.003-.2.123-.339.238-.326zm9.462-1.42c.119-.024.219.091.265.304l-.393.078c-.06-.193.015-.36.128-.382zM29.025 9.952a.346.346 0 1 1 .692 0 .346.346 0 0 1-.692 0zm-6.036.187h-.465c-.72-.949-.863-2.473-.216-3.018.647-.545 1.366-.346 1.778-.203.41.144.638.203.638.203v.448c-.302-.11-.976-.363-1.415-.363-.438 0-.864.158-.958 1.136-.09.933.638 1.797.638 1.797zm3.344-3.018s.227-.059.638-.203c.411-.143 1.131-.342 1.778.203s.502 2.07-.216 3.018h-.465s.726-.864.637-1.797c-.093-.978-.519-1.136-.958-1.136-.438 0-1.112.252-1.414.363v-.448zm-1.628 1.33v1.06s-.58-.181-1.338.499c0 0-.49-.49-.531-1.035-.058-.748 1.307-1.236 1.869-.524zm3.46.524c-.041.546-.531 1.035-.531 1.035-.758-.68-1.337-.498-1.337-.498V8.45c.56-.712 1.927-.224 1.869.524zM25.548 5.14h-.003a.89.89 0 0 1-.894-.89c-.001-.298.141-.607.265-.84.071-.137.149-.269.225-.4.14-.242.284-.49.397-.758.114.268.26.515.402.755.077.131.155.262.228.397.125.234.27.541.271.84a.893.893 0 0 1-.839.89l-.052.006zm-.063 11.475c.027.003.055.005.082.01a.083.083 0 0 0-.082-.01zm2.664-2.283l.326.639h-5.879l.327-.64c.337-.057.752-.092 1.154-.115v-.001s.63.015.63-.847c0-.723-.816-.788-.816-.788l-.212-.667H27.392l-.212.667s-.817.065-.817.788c0 .862.631.847.631.847.401.024.817.059 1.154.117zm-9.027 1.765a.456.456 0 1 1 0-.912.456.456 0 0 1 0 .912m2.616.109a2.813 2.813 0 0 1-.09-.815 2.982 2.982 0 0 1-.88-.192c-.533-.208-1.034-.577-1.605-.556-.189.007-.374.057-.562.079-.584.068-1.194-.135-1.755.043-.194.06-.37.165-.56.237-.19.072-.406.108-.594.032a.9.9 0 0 1 .706-.422 1.996 1.996 0 0 0-1.684.18c-.264.163-.492.389-.78.505-.274.11-.59.113-.84.27-.204.128-.334.338-.49.52.016.123.024.246.025.363.003.527.014 1.15.45 1.448a2.175 2.175 0 0 1 1.532-.78 1.29 1.29 0 0 0-.333.306c.115.189.402.137.602.044.431-.203.817-.492 1.238-.716.397-.211.848-.363 1.291-.305a.08.08 0 0 1 .081.009c-.027-.005-.054-.006-.08-.01-.085.034-.137.196-.052.273.11.1.28.068.425.037 1.131-.242 3.4.458 3.372.444-.08.015-.172.13-.122.22.071.127.242.146.387.16.394.04.68.16 1.025.35a6.511 6.511 0 0 1-.707-1.724m-7.957-3.38a.521.521 0 1 1 0 1.043.521.521 0 0 1 0-1.043m-.705 2.214a.633.633 0 0 0 .294.023 1.513 1.513 0 0 0-.928.456c-.097-.188-.236-.338-.441-.406-.163-.054-.366-.058-.464-.2-.046-.067-.057-.154-.11-.217-.123-.154-.374-.069-.53.054-.153.124-.32.286-.514.253a3.353 3.353 0 0 1 1.667-2.467 3.35 3.35 0 0 1 2.974-.118.246.246 0 0 1-.103-.296c.272-.045.507.171.726.338.827.63 2.043.697 2.933.16a.385.385 0 0 0-.526-.17c-.085-.144.125-.279.289-.3a2.328 2.328 0 0 1 1.928.676c.5.516.863 1.378 1.636 1.536-.101.204-.17.415-.212.63-.11-.007-.222-.01-.326-.037a2.036 2.036 0 0 1-.581-.234c-.313-.187-.585-.457-.935-.557-.324-.093-.671-.027-1.004.027a4.79 4.79 0 0 1-.992.078c-.578-.028-1.133-.228-1.7-.346-.567-.117-1.191-.142-1.69.152-.255.15-.46.373-.701.544-.242.171-.554.29-.833.19-.023.096.052.194.143.231zm4.061-3.628a.425.425 0 1 1 .001.85.425.425 0 0 1 0-.85zm-6.076.019a.567.567 0 1 1 0 1.134.567.567 0 0 1 0-1.134zm20.842 4.666a.52.52 0 1 1 0-1.041.52.52 0 0 1 0 1.04m6.03-.528c-.25-.158-.568-.161-.842-.271-.288-.116-.516-.342-.78-.504a1.996 1.996 0 0 0-1.684-.181.9.9 0 0 1 .706.422c-.188.076-.404.04-.594-.032-.19-.072-.366-.176-.56-.237-.56-.178-1.17.025-1.755-.043-.188-.022-.373-.072-.562-.08-.57-.02-1.072.349-1.605.557a2.982 2.982 0 0 1-.88.192c.01.269-.019.542-.09.815a6.511 6.511 0 0 1-.707 1.725c.346-.191.631-.311 1.025-.351.145-.014.316-.033.387-.16.05-.09-.155-.227-.122-.22a5.142 5.142 0 0 1 3.372-.444c.145.03.315.063.425-.037.085-.077.033-.24-.05-.272-.028.003-.055.004-.082.009a.08.08 0 0 1 .081-.01c.443-.057.894.095 1.291.306.421.224.806.513 1.238.716.2.093.487.145.602-.044a1.29 1.29 0 0 0-.333-.305 2.175 2.175 0 0 1 1.532.779c.436-.298.447-.921.45-1.448.001-.117.01-.24.025-.362-.156-.183-.286-.393-.489-.52m-.687-1.7a.455.455 0 1 1 0-.911.455.455 0 0 1 0 .91m1.73-1.33a3.353 3.353 0 0 1 1.668 2.466c-.195.033-.361-.129-.515-.253-.155-.123-.406-.208-.53-.054-.052.063-.063.15-.11.217-.097.142-.3.146-.463.2-.205.068-.344.218-.441.406a1.508 1.508 0 0 0-.928-.456.633.633 0 0 0 .294-.023c.09-.037.166-.135.143-.232-.28.101-.591-.018-.833-.189-.242-.17-.446-.395-.701-.544-.5-.294-1.123-.269-1.69-.152-.567.118-1.122.318-1.7.346a4.79 4.79 0 0 1-.992-.078c-.333-.054-.68-.12-1.004-.027-.35.1-.622.37-.935.557a2.036 2.036 0 0 1-.581.234c-.104.026-.216.03-.326.036a2.496 2.496 0 0 0-.212-.629c.773-.158 1.135-1.02 1.636-1.536a2.328 2.328 0 0 1 1.928-.676c.164.021.374.156.289.3a.385.385 0 0 0-.526.17c.89.537 2.106.47 2.933-.16.219-.167.454-.383.726-.338a.246.246 0 0 1-.103.296 3.35 3.35 0 0 1 2.974.118zm-5.087-1.332a.425.425 0 1 1 .001.85.425.425 0 0 1 0-.85zm6.077.226a.567.567 0 1 1 0 1.134.567.567 0 0 1 0-1.134zM15.62 19.515c-.058-.312-.402-.523-.175-.79.13-.153.84-.419.828-.66.012.264.072.527.18.77a1.853 1.853 0 0 1 1.27-.682.923.923 0 0 0-.058.556 2.46 2.46 0 0 1 1.82-.298l-.155.273a2.341 2.341 0 0 1 1.796.58l-.475-.007c.291.22.513.53.627.877-.534.173-1.09.347-1.648.277-.463-.059-.903-.285-1.37-.269.108.114.2.243.268.383a3.329 3.329 0 0 0-1.685-.008l.344.268a3.123 3.123 0 0 1-1.663.087 2.73 2.73 0 0 0 .096-1.357zm2.763 4.734c-.428.128-.042.539-.042.539-.316.568-1.317.127-1.317.127.029.324.385.647.385.647-.568.075-1.218-.331-1.218-.331-.086.298.126.602.126.602-.726.123-1.552-.483-1.552-.483-.086.297.202.557.202.557-.861.103-1.316-.585-1.316-.585-.15.175-.035.447-.035.447-.348-.078-.554-.467-.554-.467-.182.13-.262.336-.262.336-.197-.17-.246-.578-.246-.578-.057.275-.238.26-.238.26-.294-.402-.982-.338-1.355-.316-.374.022-.287-.166-.234-.391.054-.224-.108-.364-.108-.364l.072-.356c.007.017.067.04.392.016.467-.035.673.09.673.09a.653.653 0 0 1 .363.34c.439-.38.282-.706.282-.706.274.344 1.1.33 1.1.33l-.03-.188c.336.232 1.097.255 2.145.209 1.048-.046.694-.403.68-.922-.015-.517.298-.451.298-.451.22.424.59.1.59.1l.27.264c.173-.334.515-.181.515-.181-.084.493.448.424.448.424.049.309-.114.305-.336.474-.222.169-.156.377-.156.377.375-.047.458.18.458.18zm-9.716-5.35s.398-.038.694-.297c0 0 .194-.116.194.105s0 .336-.222.48c-.222.144-.666 0-.666 0s-.148-.124 0-.288zm1.7.303s.158-.555.77-.487l-.013.238s-.416.15-.396.704l-.217.14s-.314-.26-.698-.13l-.241-.077s.219-.53.796-.388zm.196-1.31l.353-.277s.282-.153.284.277c.002.313-.345.376-.345.376s-.223.048-.335.002c-.112-.047-.181-.202.043-.378zm1.49 2.198l-.227.668c-.074.12-.202.244-.417.361a1.45 1.45 0 0 1-.51.153l-.692-.13s.26-.685.255-.696c.293-.169.242-.538.242-.538.18.221.65.052.662.06l.688.122zm-3.882-.64s-.127.49.397.944c.524.456.068.853.068.853s.32.177.549-.143v.354s-.228.287-.228.811.32 1.208.109 1.638c0 0 .414.025.397-.599 0 0 .245.413.169.751 0 0 .473-.127.355-.802 0 0 .228.22.177.54 0 0 .43-.152.338-.717 0 0 .135.185.48.185.347 0 .778-.169 1.04.195 0 0 .118-.625-.397-.853 0 0 .337-.11.828.312 0 0 .219.17.599.161 0 0-.152-.228-.127-.423 0 0 .329.397 1.064.397l-.084-.245s.852.254.996-1.072c0 0-.44.448-.65.22-.2-.215-.25-.56-.46-.622.173.048.867.193 1.11-.493 0 0-.177.11-.422-.068 0 0 .54.01.54-.768 0-.777-1.013-.507-1.013-.507s-.38.135-.515.405c0 0-.228-.489.219-.59 0 0 .018-.178-.362-.178 0 0-.102.01-.28.144-.176.135-.455.143-.523.042 0 0 .355-.127.439-.38 0 0-.32.11-.473-.067-.152-.178-.101-.389-.337-.845-.236-.456-.465-.49-.465-.49s.39-1.382-.657-1.812l-.38.94s-.473-.055-1.444.52c-.971.573-1.11.855-1.11.855s-.784-.278-1.164-.126c0 0-.323 1.418 1.217 1.532zm1.95 9.542s1.718 1.191 4.67 1.464c0 0-2.94.788-4.67-1.464m4.107 3.335a1.007 1.007 0 0 1-.23.376 1.17 1.17 0 0 1-.558.32 1.318 1.318 0 0 1-.764-.06 1.47 1.47 0 0 1-.32-.209 1.414 1.414 0 0 1-.242-.286 1.165 1.165 0 0 1-.164-.623c.003-.073.016-.13.028-.189-.027.04-.048.078-.087.116a1.167 1.167 0 0 1-.56.321c-.24.051-.5.04-.764-.06a1.526 1.526 0 0 1-.32-.21 1.414 1.414 0 0 1-.241-.286 1.165 1.165 0 0 1-.164-.623c.017-.382.193-.563.193-.563s-.052.24.025.542a1.21 1.21 0 0 0 .419.65c.08.06.14.09.256.14a.988.988 0 0 0 .536.08c.179-.026.352-.075.482-.16.27-.157.404-.362.404-.362s-.007.041-.022.1a1.34 1.34 0 0 0 .032.483 1.232 1.232 0 0 0 .42.65c.08.06.14.09.257.14.153.07.36.106.536.078.178-.025.35-.073.482-.158.269-.158.403-.363.403-.363s-.005.058-.037.156m-1.745 2.851a.935.935 0 0 1-.298.29 1.103 1.103 0 0 1-.588.158 1.277 1.277 0 0 1-.678-.232 1.275 1.275 0 0 1-.402-.593 1.099 1.099 0 0 1-.001-.608c.028-.092.064-.166.1-.228-.04.036-.078.074-.134.106a1.102 1.102 0 0 1-.587.16 1.27 1.27 0 0 1-.677-.233c-.045-.036-.078-.087-.118-.13a1.24 1.24 0 0 0-.188.388c-.048.14-.05.31-.033.478a.938.938 0 0 0 .203.48c.204.302.585.431.874.428.295 0 .503-.104.503-.104s-.032.045-.105.11a.951.951 0 0 1-.366.198 1.111 1.111 0 0 1-.608-.005 1.278 1.278 0 0 1-.59-.406 1.284 1.284 0 0 1-.23-.679 1.11 1.11 0 0 1 .164-.587.91.91 0 0 1 .348-.33 1.236 1.236 0 0 1-.257-.434 1.099 1.099 0 0 1-.001-.608c.107-.346.31-.469.31-.469s-.103.206-.106.502c-.008.147.035.311.097.47a.929.929 0 0 0 .325.406c.277.237.679.258.957.178.212-.06.36-.16.423-.209a1.379 1.379 0 0 1-.3-.197 1.293 1.293 0 0 1-.23-.27 1.096 1.096 0 0 1-.154-.589c.016-.36.182-.532.182-.532s-.05.226.023.513c.03.144.113.292.213.43.05.068.115.13.184.184.077.055.132.084.242.131a.93.93 0 0 0 .507.075c.168-.023.332-.069.456-.149.254-.149.38-.343.38-.343s-.004.055-.034.147a.959.959 0 0 1-.217.356 1.107 1.107 0 0 1-.528.302 1.258 1.258 0 0 1-.705-.053l-.033.06.02-.016s-.103.206-.106.501c-.01.148.035.312.097.47a.93.93 0 0 0 .326.407c.276.237.678.258.956.178a1.23 1.23 0 0 0 .456-.236s-.018.052-.072.134m-3.792 1.845a.967.967 0 0 1-.416.007 1.114 1.114 0 0 1-.538-.286 1.255 1.255 0 0 1-.337-.642 1.247 1.247 0 0 1 .112-.698 1.1 1.1 0 0 1 .415-.446c.068-.038.129-.062.188-.082-.031-.003-.056 0-.088-.007a1.109 1.109 0 0 1-.537-.285 1.26 1.26 0 0 1-.338-.642 1.607 1.607 0 0 1-.008-.152 1.32 1.32 0 0 0-.32.112 1.138 1.138 0 0 0-.51.523 1.074 1.074 0 0 0-.074.265.923.923 0 0 0 .039.511c.06.16.14.31.247.411.2.215.419.296.419.296s-.055.008-.152 0a.957.957 0 0 1-.394-.134 1.095 1.095 0 0 1-.412-.448 1.253 1.253 0 0 1-.105-.717c.02-.092.069-.237.125-.338.022-.037.052-.065.075-.099H6.08a.936.936 0 0 1-.34-.243 1.104 1.104 0 0 1-.262-.549 1.263 1.263 0 0 1 .062-.559 1.24 1.24 0 0 0-.424.003 1.145 1.145 0 0 0-.642.35 1.043 1.043 0 0 0-.148.232.931.931 0 0 0-.113.5c.012.17.045.336.116.465.13.265.314.406.314.406s-.054-.009-.144-.046a.945.945 0 0 1-.34-.242 1.121 1.121 0 0 1-.262-.549 1.257 1.257 0 0 1 .11-.717c.047-.08.135-.206.219-.286.01-.009.023-.015.034-.025a.95.95 0 0 1-.305-.402 1.125 1.125 0 0 1-.057-.606 1.27 1.27 0 0 1 .345-.628c.18-.158.43-.27.652-.296a1.11 1.11 0 0 1 .6.102c.323.164.41.387.41.387s-.186-.138-.477-.19a1.134 1.134 0 0 0-.48.015.923.923 0 0 0-.456.251c-.28.232-.37.625-.337.913.02.208.089.364.127.438.074-.063.149-.125.23-.168.205-.11.426-.123.599-.11a.917.917 0 0 1 .443.16c.013-.039.016-.077.034-.115.046-.08.135-.206.219-.286.088-.083.184-.156.286-.209a1.11 1.11 0 0 1 .599-.112c.359.043.517.222.517.222s-.222-.065-.513-.015a1.163 1.163 0 0 0-.641.351 1.081 1.081 0 0 0-.15.232.928.928 0 0 0-.111.5c.01.17.045.336.116.465.067.138.148.24.212.308.033-.044.06-.094.098-.132.163-.164.37-.242.54-.282.165-.029.294-.017.388.003.003-.043.004-.088.01-.126a1.091 1.091 0 0 1 .522-.784c.314-.179.547-.13.547-.13s-.217.08-.421.293a1.167 1.167 0 0 0-.308.664 1.03 1.03 0 0 0 .019.274c.02.16.096.343.207.47.109.13.235.243.369.305.262.135.494.14.494.14s-.05.025-.144.048c-.014.004-.038.005-.055.008a1.258 1.258 0 0 0-.335.252 1.148 1.148 0 0 0-.307.663 1.08 1.08 0 0 0 .018.275c.02.16.096.342.207.47.11.128.236.243.37.304.26.136.493.14.493.14s-.048.025-.143.05m-5.335-6.328c-.118.2-.135.388-.135.388s-.105-.163-.053-.455a.904.904 0 0 1 .235-.44 1.05 1.05 0 0 1 .525-.27c.194-.022.419.02.58.105a.89.89 0 0 1 .353.353c.136.263.082.45.082.45s-.071-.173-.243-.33a.921.921 0 0 0-.321-.192.717.717 0 0 0-.4-.035c-.277.024-.507.23-.623.426m11.689-2.508c.023.108.066.211.095.318.056.215.048.44.04.662l-.032.83c-.05 1.285-.127 2.655-.888 3.69a6.06 6.06 0 0 1-1.13 1.193c-.674.527-.241 1.392-.034 1.71-.592.68-4.496 1.821-7.18.243-3.607-2.123-3.201-6.189-2.99-7.59.342-2.262 1.946-3.97 1.88-5.185-.047-.872-1.064-.626-1.393-.416.118-.578 1.273-1.067 2.012-.575.552.368.709 2.048.144 3.992-.45 1.546-.355 4.51 1.853 4.878 1.998.333 2.155-2.216 2.14-2.44-.015-.236-.134-.484-.03-.695.06-.12.182-.198.25-.312.065-.108.077-.238.085-.363a7.138 7.138 0 0 0-.124-1.81c-.091-.46-.345-.91-.366-1.38.13.321.59.467.864.231.013.188.066.374.154.54.405-.299.985-.217 1.43.017.445.234.809.595 1.233.867l.046-.375c.235.254.562.421.906.462l-.064-.444c.212.095.445.14.676.131.034.127.045.26.033.39.154-.033.315-.03.468.004a1.96 1.96 0 0 0-.285.706.913.913 0 0 1 .412-.128c-.16.252-.265.557-.205.85zM4.869 19.632c.393.113.83.07 1.191-.119-.34.37-.545.85-.652 1.342-.108.492-.124 1-.126 1.502a4.487 4.487 0 0 0-.572-.136c.065-.287.09-1.438-.065-2.006-.329.683-.334 1.295-.408 1.962-.03 0-.06 0-.09.002-.373-.613-.947-1.084-1.55-1.478.144.65.483 1.164.745 1.72l-.094.061a5.512 5.512 0 0 0-1.736-.272c.475.156.926.376 1.352.64a1.124 1.124 0 0 0-.169.343c-.96-.296-1.616-.489-2.695-.262.34-.165.65-.348.728-.73.068-.332-.135-.855-.302-1.179.293.017 1.02.185 1.381-.126.324-.277.33-.804.123-1.3.372.286.995.545 1.423.352.428-.192.663-.677.577-1.138.207.352.546.71.94.822zm30.538-.117a2.73 2.73 0 0 0 .096 1.357 3.123 3.123 0 0 1-1.663-.087l.344-.268a3.33 3.33 0 0 0-1.685.008c.07-.14.16-.269.268-.383-.466-.016-.907.21-1.37.27-.557.07-1.113-.105-1.648-.278a1.82 1.82 0 0 1 .627-.877l-.474.006a2.338 2.338 0 0 1 1.795-.579l-.155-.273a2.463 2.463 0 0 1 1.82.298.931.931 0 0 0-.057-.556c.492.043.962.296 1.27.682.107-.243.168-.506.179-.77-.01.241.699.507.828.66.228.267-.117.478-.175.79zm4.885 4.737s-.157.145-.096.368c.061.222.154.407-.22.398-.376-.01-1.067-.05-1.349.361 0 0-.18.02-.247-.253 0 0-.036.41-.228.586 0 0-.086-.203-.273-.327 0 0-.193.395-.54.485 0 0 .107-.275-.049-.445 0 0-.434.702-1.3.628 0 0 .281-.269.184-.564 0 0-.807.633-1.539.535 0 0 .203-.31.107-.606 0 0-.637.427-1.21.371 0 0 .346-.335.365-.66 0 0-.988.474-1.324-.084 0 0 .374-.423-.059-.537 0 0 .075-.229.453-.194 0 0 .06-.21-.169-.372-.228-.162-.39-.152-.352-.462 0 0 .535.051.435-.439 0 0 .338-.165.52.163l.263-.272s.381.311.59-.119c0 0 .31-.077.312.44.003.52-.339.888.712.9 1.051.01 1.812-.037 2.142-.28l-.025.19s.83-.016 1.092-.368c0 0-.147.331.305.697 0 0 .083-.238.354-.353 0 0 .202-.13.67-.112.327.014.386-.012.393-.029l.083.354zm.073-6.032c-.112.047-.336-.002-.336-.002s-.346-.064-.345-.377c.003-.43.285-.277.285-.277l.353.277c.224.176.155.331.043.378m1.007 1.406l-.272.07c-.416-.168-.78.099-.78.099l-.23-.169c.057-.611-.393-.803-.393-.803v-.264c.68-.037.82.587.82.587.647-.12.855.48.855.48m-.68 1.381l-.696.085a1.447 1.447 0 0 1-.508-.152c-.215-.116-.343-.24-.417-.361l-.204-.651.65-.01c.012-.008.484.161.663-.06 0 0-.05.37.242.538-.006.012.27.611.27.611m.832-2.454c.296.259.694.297.694.297.147.163 0 .288 0 .288s-.444.145-.666 0c-.223-.145-.223-.26-.223-.48 0-.221.195-.105.195-.105m-1.313-1.934s.475-.055 1.446.519c.97.575 1.108.855 1.108.855s.785-.277 1.165-.126c0 0 .323 1.418-1.217 1.532 0 0 .127.49-.397.947-.523.456-.067.853-.067.853s-.321.177-.55-.145v.354s.229.288.229.811c0 .524-.321 1.209-.11 1.639 0 0-.413.026-.397-.6 0 0-.244.415-.17.752 0 0-.471-.127-.353-.803 0 0-.228.22-.178.541 0 0-.43-.152-.337-.718 0 0-.135.186-.481.186-.347 0-.778-.168-1.04.195 0 0-.118-.625.398-.854 0 0-.338-.11-.828.313 0 0-.22.169-.6.16 0 0 .153-.227.127-.421 0 0-.33.396-1.064.396l.085-.245s-.853.253-.997-1.073c0 0 .44.448.65.22.199-.214.25-.56.46-.621-.172.047-.866.192-1.11-.494 0 0 .178.11.423-.067 0 0-.541.009-.541-.768s1.014-.508 1.014-.508.38.136.514.407c0 0 .228-.49-.22-.591 0 0-.016-.178.364-.178 0 0 .1.009.279.144.177.134.456.143.523.041 0 0-.354-.126-.44-.38 0 0 .322.11.474-.067.152-.178.1-.389.338-.845.236-.456.464-.488.464-.488s-.39-1.383.657-1.813l.379.94zm-16.08-10a.346.346 0 1 1 0-.693.346.346 0 0 1 0 .692zm-1.635-.186a.346.346 0 1 1 0-.692.346.346 0 0 1 0 .692zm-1.162 1.07a.346.346 0 1 1 0-.693.346.346 0 0 1 0 .692zm-.243 1.47a.346.346 0 1 1 0-.693.346.346 0 0 1 0 .692zm8.829 0a.346.346 0 1 1 0-.693.346.346 0 0 1 0 .692zm-8.5.676a.346.346 0 1 1 0 .692.346.346 0 0 1 0-.692zm5.57-3.069a.346.346 0 1 1 .001-.692.346.346 0 0 1 0 .692zm1.57-.241a.346.346 0 1 1 0-.693.346.346 0 0 1 0 .693zm1.184.946a.346.346 0 1 1 0-.692.346.346 0 0 1 0 .692zM25.546 1a.447.447 0 1 1 0 .893.447.447 0 0 1 0-.893zm-2.302 25.625l-.414.701-.076-.012v-1.519l.525-.77.396.91c-.163.246-.308.48-.43.69zm.009 3.595a1.418 1.418 0 0 0-.977-.387l-.081-.025c.237-.436.373-.997.417-1.695l.019-.013c.205 0 .385.162.541.474.093.187.211.536.354 1.023l-.273.623zm-2.552.837c.093-.187.236-.486.43-.886.161-.36.242-.736.242-1.11l-.019-.337c-.044-.286-.13-.423-.255-.423-.068 0-.149.05-.243.137.044-.437.156-.649.35-.649.142 0 .272.063.397.2 0-.362-.03-.686-.093-.96-.08-.349-.2-.536-.36-.574l-.113-.025c-.063 0-.168.038-.317.125.093-.486.25-.736.466-.736.124 0 .243.051.361.163 0-.562.062-1.06.193-1.472.106-.337.286-.699.541-1.085l-.012-.05c-.33.412-.567.6-.697.586l-.454-.062c-.237 0-.43.224-.573.673l-.018-.012c.08-1.098.342-1.646.778-1.646.1 0 .23.037.391.112.162.063.268.1.317.1.106 0 .268-.075.492-.237v.087c-.218.811-.33 1.571-.33 2.257v2.494c0 .537-.105 1.035-.31 1.497-.069.137-.28.523-.642 1.134l.07.1c.528-.573.807-.873.826-.91.243-.387.361-.96.361-1.746v-2.257c0-.935.124-1.833.373-2.669h.106a10.762 10.762 0 0 0-.36 2.82c.367-.513.703-1.074 1.007-1.685l.641 1.434c-.342.487-.678 1.01-1.02 1.596.305.337.541.786.722 1.372l.503 1.621.175-.324.087.162-.622 1.36a10.936 10.936 0 0 1-.51-1.497l-.66 1.51c-.405-.326-.747-.487-1.039-.487-.143 0-.31.05-.504.136a7.203 7.203 0 0 0-.603.35l-.075-.187zm4.541 4.263c-6.327-2.015-6.02-7.708-6.02-7.708v-6.709c3.915 0 5.498-1.13 6.02-1.756V35.32zm4.084-8.772c.684 0 1.065.457 1.143 1.356.006.102.012.19.012.267v.152c0 .672-.2 1.344-.6 2.029l-.574-.431c.251-.267.426-.47.53-.634.186-.292.283-.596.283-.901 0-.151-.013-.291-.045-.431-.097-.456-.355-.684-.775-.684-.155 0-.393.038-.723.1l.181-.735c.213-.063.401-.088.568-.088zm-2.535 3.588a.432.432 0 0 1 .303-.14c.323 0 .723.203 1.194.597-.433.443-.82.659-1.168.659-.24 0-.393-.153-.465-.444l-.032-.203c0-.203.058-.355.168-.469zm2.774-1.357c0 .152-.064.342-.187.571l-.258.418c-.484-.304-.832-.494-1.058-.57l.174-.685c.536-.102.826-.152.871-.152.162 0 .284.025.361.09a.5.5 0 0 1 .097.328zm-.957-2.138l-.18.654a1.743 1.743 0 0 1-.454.095c-.265 0-.49-.119-.666-.404a1.076 1.076 0 0 1-.157-.535c0-.19.055-.38.165-.582.12.546.404.82.858.82.102 0 .248-.012.434-.048zm-.299-1.368c-.405 0-.61-.26-.61-.784l-.007-.036c0-.249.055-.439.163-.58.097-.133.212-.204.34-.204h.096c.29.06.586.31.883.725l-.206.725-.326.095c-.115.035-.23.06-.333.06zm2.611 2.593c0 .99-.297 1.877-.897 2.675a7.833 7.833 0 0 1-.723.813l-.8-.648c-.316.267-.529.445-.631.508-.285.19-.51.267-.684.24l-.194-.024c-.303-.038-.569-.457-.569-1.027 0-.875.323-1.32.962-1.32.188 0 .361.026.523.065l.148-.622-.076.012c-.24.038-.485-.038-.75-.229-.284-.215-.476-.556-.573-1.052a2.111 2.111 0 0 1-.046-.405c0-.494.175-.9.517-1.218 0-.646.206-1.306.463-1.762l.602-1.052c.413.33.825.608 1.232.837l.142-.494.116.163-.613 2.157.213.026c.483.063.852.227 1.096.506.361.418.543 1.014.543 1.788v.063zm.881-.253s.296 5.693-6.031 7.708V19.145c.523.625 2.11 1.759 6.032 1.759v6.709zm-5.217-8.986l-1.049-.585-1.049.585s-1.279-.224-1.666-1.188c0 0 1.44.096 2.715.096s2.715-.096 2.715-.096c-.387.964-1.666 1.188-1.666 1.188zm-1.301-3.2h.585c.168.799 0 1.672 0 1.672h-.585s-.168-.873 0-1.671zm-1.198 0h.55s-.237.729 0 1.672h-.58s-.427-.968.03-1.671zm-1.377 0h.65c-.544.76 0 1.672 0 1.672h-.582c-.557-.9-.068-1.671-.068-1.671zm4.388 1.672h-.58c.237-.944 0-1.672 0-1.672h.55c.458.703.03 1.672.03 1.672zm1.278 0h-.58s.542-.912 0-1.672h.65s.487.773-.07 1.672zm-5.596-5.681l-.254-.992c1.389-.07 3.022-.13 3.022-.13s1.632.06 3.02.13l-.253.992h-5.535zm2.768-5.324a.514.514 0 1 1 0 1.027.514.514 0 0 1 0-1.028zm0 1.476a.446.446 0 1 1-.001.892.446.446 0 0 1 0-.892zm0 1.443a.345.345 0 1 1-.001.69.345.345 0 0 1 0-.69z"/>
    </defs>
    <g fill="none" fill-rule="evenodd">
        <mask id="c" fill="#fff">
            <use xlink:href="#b"/>
        </mask>
        <use fill="#fff" xlink:href="#b"/>
        <g fill="#fff" mask="url(#c)">
            <path d="M-35-60h180v180H-35z"/>
        </g>
    </g>
</svg>
