<svg xmlns="http://www.w3.org/2000/svg" width="53" height="42"><path fill="#82C1EA" d="M0 29.933V23.35C0 10.647 10.334.313 23.037.313a1.097 1.097 0 0 1 0 2.194c-11.374 0-20.65 9.16-20.84 20.49 2.186-3.102 5.795-5.131 9.87-5.131 6.655 0 12.067 5.412 12.067 12.067C24.134 36.587 18.722 42 12.067 42 5.413 42 0 36.587 0 29.933zm28.522 0V23.35C28.522 10.647 38.856.313 51.56.313a1.097 1.097 0 0 1 0 2.194c-11.374 0-20.651 9.16-20.84 20.49a12.058 12.058 0 0 1 9.87-5.131c6.654 0 12.067 5.412 12.067 12.067C52.657 36.587 47.244 42 40.59 42c-6.655 0-12.068-5.413-12.068-12.067z" opacity=".5"/></svg>