<svg xmlns="http://www.w3.org/2000/svg" xmlns:xlink="http://www.w3.org/1999/xlink" width="221" height="57"><defs><path id="a" d="M.896.703h14.706v23.74H.896z"/><path id="c" d="M0 .045h7.96V9.14H0z"/><path id="e" d="M.22.698h2.417V11H.22z"/><path id="g" d="M.355.697h2.428V11H.355z"/><path id="i" d="M0 57h221V1H0z"/></defs><g fill="none" fill-rule="evenodd"><path fill="#005CA2" d="M37.329 20.145c-1.204.155-2.291-.706-2.445-1.913a2.215 2.215 0 0 1 .44-1.633 2.162 2.162 0 0 1 1.73-.858c1.082 0 2.025.817 2.166 1.931.151 1.21-.697 2.318-1.891 2.473m-13.144.908a1.497 1.497 0 0 1-.675.938 1.487 1.487 0 0 1-2.06-.5 1.527 1.527 0 0 1 .495-2.084 1.472 1.472 0 0 1 1.133-.184c.39.097.72.34.927.685a1.5 1.5 0 0 1 .18 1.145m-3.184-9.35a4.008 4.008 0 0 1-2.686 1.553 3.975 3.975 0 0 1-2.985-.822c-1.763-1.382-2.089-3.957-.725-5.741a4.017 4.017 0 0 1 5.673-.73 4.075 4.075 0 0 1 1.537 2.718A4.105 4.105 0 0 1 21 11.703m9.6-7.494c1.343-.838 3.109-.403 3.934.957.824 1.36.4 3.146-.945 3.98a2.84 2.84 0 0 1-3.933-.957c-.825-1.36-.4-3.147.944-3.98m10.368 13.237c-.275-2.18-2.245-3.73-4.413-3.456a3.88 3.88 0 0 0-2.397 1.273l-5.185-2.114 1.518-2.108c.172.066.34.14.523.184a4.567 4.567 0 0 0 3.495-.558c2.175-1.348 2.858-4.231 1.528-6.433-1.33-2.2-4.184-2.894-6.359-1.546-2.173 1.348-2.858 4.233-1.526 6.431v.002c.227.376.517.697.83.988L27.29 12.46l-3.926-1.602c.226-.77.301-1.583.197-2.403a5.834 5.834 0 0 0-2.204-3.903 5.766 5.766 0 0 0-8.146 1.05c-1.958 2.559-1.492 6.259 1.038 8.241a5.72 5.72 0 0 0 4.288 1.18 5.758 5.758 0 0 0 3.858-2.23c.077-.103.13-.22.202-.324l3.622 1.478-2.585 3.594c-.05-.014-.094-.037-.145-.05a3.203 3.203 0 0 0-2.464.392 3.325 3.325 0 0 0-1.076 4.538v.002a3.24 3.24 0 0 0 4.483 1.087 3.271 3.271 0 0 0 1.468-2.04 3.304 3.304 0 0 0-.761-2.992l2.765-3.842 5.366 2.19a4.034 4.034 0 0 0-.134 1.633c.256 2.012 1.958 3.487 3.916 3.487.166 0 .331-.01.5-.032 2.16-.28 3.692-2.284 3.416-4.468"/><path fill="#5DB6E7" d="M78 12.285h-5.284V7h-2.432v5.285H65v2.432h5.284V20h2.432v-5.283H78zm88 0h-5.284V7h-2.432v5.285H153v2.432h5.284V20h2.432v-5.283H166z"/><g transform="translate(191)"><mask id="b" fill="#fff"><use xlink:href="#a"/></mask><path fill="#005CA2" d="M8.205 4.403c-.7 1.695-1.6 3.261-2.473 4.78-.478.834-.958 1.667-1.406 2.526-.772 1.483-1.659 3.427-1.652 5.308a5.656 5.656 0 0 0 1.645 3.987 5.508 5.508 0 0 0 3.928 1.638h.022l.325-.04c2.944-.187 5.24-2.658 5.23-5.625-.007-1.884-.908-3.82-1.69-5.297-.454-.853-.937-1.681-1.42-2.51-.884-1.511-1.796-3.075-2.51-4.767m.04 20.04a7.259 7.259 0 0 1-5.177-2.163 7.445 7.445 0 0 1-2.17-5.256c-.008-2.279.988-4.485 1.857-6.156.459-.88.951-1.735 1.442-2.59.931-1.62 1.811-3.15 2.478-4.837.32-.813.523-1.441.656-2.037a.89.89 0 0 1 .864-.702h.002c.416 0 .775.29.866.698.096.42.229.828.371 1.235.094.265.192.533.297.798.681 1.683 1.572 3.207 2.514 4.824.496.847.992 1.697 1.456 2.57v.002c.882 1.66 1.893 3.859 1.902 6.141.013 3.919-3.015 7.182-6.892 7.429-.22.03-.331.049-.466.043" mask="url(#b)"/></g><g transform="translate(0 32)"><mask id="d" fill="#fff"><use xlink:href="#c"/></mask><path fill="#00559C" d="M7.96 4.445H6.605V9.14h-1.02V.045h1.02V3.59h1.353v.856zM1.02 6.007a19.59 19.59 0 0 0 3.845-.394l.119.856a21.249 21.249 0 0 1-4.243.404H0V.93h1.02v5.076z" mask="url(#d)"/></g><path fill="#00559C" d="M17 39.175V40H9v-.825h3.481V36.99H9.938V33h1.017v3.176h5.165v.814h-2.622v2.185zm4.916 1.076h5.485V41h-6.478v-2.163h5.171V38.2h-5.189v-.749h6.193v2.09h-5.182v.711zM28 36.017v.768h-8v-.768h5.83c.077-.329.118-.629.146-.91l-5.09.206-.12-.74 5.26-.15c.01-.234.01-.449.01-.666h-5.034V33h6.025v.682c0 .667 0 1.408-.185 2.335H28zM37 32v9h-1.003v-4.788h-1.543v-.845h1.543V32H37zm-5.997 6.04c1.356-.011 2.41-.06 3.618-.27l.089.836c-1.317.228-2.459.278-4 .278h-.692V35.24h2.947v-1.6H30v-.823h3.948v3.247h-2.945v1.977zm15.215-.546c-1.438-.289-2.68-1.19-3.256-2.38-.577 1.19-1.82 2.091-3.257 2.38l-.43-.817c1.74-.316 3.158-1.651 3.158-3.023V33h1.066v.654c0 1.382 1.42 2.716 3.16 3.023l-.44.817zM39 40h8v-.816h-8V40zm16-8v9h-1.025v-4.857h-1.707v-.845h1.707V32H55zm-5.986 6.069c1.42-.01 2.436-.06 3.599-.259l.09.825c-1.273.23-2.386.27-4.005.27H48v-6.111h4.13v.844h-3.116v1.678h2.752v.816h-2.752v1.937z"/><g transform="translate(9 46)"><mask id="f" fill="#fff"><use xlink:href="#e"/></mask><path fill="#00559C" d="M.22 5.844c0-1.986.605-3.627 1.625-5.146l.792.311C1.69 2.46 1.253 4.163 1.253 5.844c0 1.692.438 3.393 1.384 4.834l-.792.323C.825 9.47.22 7.848.22 5.844" mask="url(#f)"/></g><path fill="#00559C" d="M12 52.016C12 50.102 13.15 49 14.466 49c.636 0 1.098.292 1.461.655l-.518.78c-.272-.28-.553-.447-.898-.447-.832 0-1.433.81-1.433 2.028 0 1.206.573 2.007 1.407 2.007.417 0 .789-.23 1.087-.52l.428.79a2.268 2.268 0 0 1-1.616.707C13.034 55 12 53.91 12 52.016m6 1.581V47h1.254v6.657c0 .305.152.415.306.415.056 0 .1 0 .21-.021l.164.86a2.21 2.21 0 0 1-.68.089C18.342 55 18 54.477 18 53.597m2-.909V49h1.014v3.538c0 1.013.237 1.407.81 1.407.449 0 .757-.256 1.162-.873V49H24v5.862h-.828l-.08-.884h-.027c-.44.617-.914 1.022-1.585 1.022-1.03 0-1.48-.82-1.48-2.312m6 1.522l.52-.768c.47.405.933.655 1.498.655.638 0 .935-.333.935-.77 0-.521-.597-.749-1.173-.989-.703-.292-1.51-.697-1.51-1.664 0-.956.712-1.674 1.874-1.674.713 0 1.289.312 1.721.676l-.518.738c-.366-.291-.742-.5-1.183-.5-.578 0-.846.313-.846.709 0 .488.546.676 1.126.905.738.3 1.556.655 1.556 1.736C30 54.22 29.3 55 27.99 55c-.73 0-1.48-.331-1.99-.79m5.675-2.099V49.39H31v-.843l.717-.059.11-1.488h.82v1.488h1.208v.902h-1.207v2.73c0 .647.194.98.675.98.16 0 .363-.059.499-.128l.178.832c-.263.098-.575.196-.914.196-1.05 0-1.41-.754-1.41-1.889m6.281-.616c0-.988-.452-1.56-1.295-1.56-.726 0-1.368.551-1.483 1.56h2.778zM34 52.016C34 50.155 35.282 49 36.64 49c1.538 0 2.36 1.09 2.36 2.713 0 .23-.021.47-.052.604H35.19c.092 1.093.79 1.748 1.788 1.748.518 0 .958-.157 1.38-.428l.422.76a3.562 3.562 0 0 1-1.96.603C35.251 55 34 53.898 34 52.016zm6-2.866h.871l.083 1.053h.029c.36-.756.896-1.203 1.442-1.203.251 0 .418.043.575.128l-.194 1.065a1.334 1.334 0 0 0-.51-.097c-.417 0-.916.33-1.24 1.255V55H40v-5.85z"/><g transform="translate(44 46)"><mask id="h" fill="#fff"><use xlink:href="#g"/></mask><path fill="#00559C" d="M.355 10.678c.946-1.441 1.382-3.143 1.382-4.835 0-1.681-.436-3.382-1.382-4.832l.792-.314C2.18 2.219 2.783 3.86 2.783 5.843 2.783 7.85 2.18 9.47 1.147 11l-.792-.322z" mask="url(#h)"/></g><path fill="#00559C" d="M97 39.096h1.533v-4.87h-1.257v-.693c.657-.124 1.125-.285 1.524-.533h.829v6.096H101V40h-4v-.904zm5-.011l.562-.701c.43.39.972.738 1.76.738.848 0 1.492-.551 1.492-1.468 0-.916-.573-1.44-1.433-1.44-.48 0-.765.133-1.205.393l-.573-.345.225-3.262h3.815v.907h-2.793l-.175 1.766c.319-.15.626-.243 1.033-.243 1.259 0 2.292.682 2.292 2.188 0 1.523-1.217 2.382-2.535 2.382-1.186 0-1.934-.439-2.465-.915m9.845-2.608c0-1.935-.556-2.642-1.344-2.642s-1.344.707-1.344 2.642c0 1.955.556 2.688 1.344 2.688s1.344-.733 1.344-2.688m-3.845 0c0-2.338.979-3.477 2.501-3.477 1.512 0 2.499 1.147 2.499 3.477 0 2.349-.987 3.523-2.499 3.523-1.522 0-2.501-1.174-2.501-3.523m9.794 1.39c0-1.17-.375-1.892-1.307-1.892-.436 0-.853.224-1.33.681v2.735c.436.376.872.51 1.217.51.813 0 1.42-.724 1.42-2.034zM114 35.14h.955l.092.61h.03c.487-.405 1.094-.751 1.713-.751 1.422 0 2.21 1.129 2.21 2.846 0 1.921-1.145 3.018-2.402 3.018-.497 0-.995-.222-1.47-.629l.03.955V43H114v-7.86zm9.794 2.727c0-1.17-.375-1.892-1.307-1.892-.436 0-.853.224-1.33.681v2.735c.436.376.872.51 1.217.51.813 0 1.42-.724 1.42-2.034zM120 35.14h.955l.092.61h.03c.487-.405 1.094-.751 1.713-.751 1.422 0 2.21 1.129 2.21 2.846 0 1.921-1.145 3.018-2.402 3.018-.497 0-.995-.222-1.47-.629l.03.955V43H120v-7.86zm6 .01h.97l.092.818h.032c.484-.532 1.051-.968 1.753-.968.844 0 1.32.405 1.567 1.075.555-.616 1.133-1.075 1.845-1.075 1.186 0 1.741.83 1.741 2.32V41h-1.184v-3.53c0-1.012-.31-1.416-.95-1.416-.392 0-.805.265-1.28.798V41h-1.184v-3.53c0-1.012-.3-1.416-.947-1.416-.383 0-.805.265-1.278.798V41H126v-5.85zm-11 13.6v.863h-1.216v3.145h-.98V46h.98v2.75H115zm-5.653 5.397h4.778V55h-5.757v-2.892h.979v2.039zm2.3-2.82c-.951-.355-1.645-1.085-2.024-1.979-.371 1.005-1.084 1.786-2.09 2.172l-.533-.812c1.378-.497 2.11-1.734 2.11-3.073v-1.066h.987v1.075c0 1.219.742 2.375 2.043 2.851l-.493.831zm11.589.029c-1.446-.277-2.7-1.132-3.265-2.273-.588 1.14-1.84 1.996-3.278 2.273l-.43-.819c1.75-.284 3.168-1.568 3.168-2.891V47h1.067v.646c0 1.331 1.419 2.607 3.158 2.891l-.42.82zm.764 1.835V54h-8v-.809h3.45v-2.006h1.008v2.006H124zm66.005-17.398c1.302 0 2.106-.357 2.106-.978 0-.633-.804-.99-2.106-.99-1.322 0-2.116.357-2.116.99 0 .621.794.978 2.116.978zm-3.114 3.221h6.129V42h-1.008v-2.14h-5.12v-.846zm7.109-1.61v.846h-8v-.846h3.487v-.806c-1.626-.111-2.635-.764-2.635-1.783 0-1.132 1.225-1.815 3.153-1.815 1.918 0 3.154.683 3.154 1.815 0 1.028-1.03 1.672-2.655 1.783v.806H194zm9-2.417h-1.245v2.24h-1.005V32h1.005v2.13H203v.857zm-5.869 5.186h3.639v-1.695h-3.639v1.695zm-.992.827h5.616v-3.35h-5.616V41zm1.198-5.004c.786 0 1.36-.505 1.36-1.312 0-.777-.574-1.291-1.36-1.291-.79 0-1.354.514-1.354 1.291 0 .807.564 1.312 1.354 1.312zm0 .878c-1.334 0-2.337-.898-2.337-2.19 0-1.271 1.003-2.16 2.337-2.16 1.342 0 2.343.889 2.343 2.16 0 1.292-1 2.19-2.343 2.19zM212 34.695v.865h-1.277v3.184h-1.028V32h1.028v2.695H212zm-6.972 1.718h2.205v-1.514h-2.205v1.514zm1.028 3.732h5.027V41h-6.066v-2.908h1.039v2.053zm2.196-2.888H204v-4.605h1.028v1.432h2.205v-1.432h1.019v4.605zM183.778 48.13v1.085H185v.846h-1.222v1.264h-1.004V46h1.004v1.283H185v.846h-1.222zm-4.433 1.84c.79 0 1.366-.507 1.366-1.293 0-.787-.576-1.294-1.366-1.294-.782 0-1.358.507-1.358 1.294 0 .786.576 1.294 1.358 1.294zm-1.369 1.753h5.802V55h-1.004v-2.45h-4.798v-.827zm1.37-.886c-1.34 0-2.346-.886-2.346-2.16s1.006-2.16 2.345-2.16c1.348 0 2.353.886 2.353 2.16s-1.005 2.16-2.353 2.16zM194 47.875v.857h-1.236v1.875h-1.006V46h1.006v1.875H194zm-5.914 6.3h4.969V55H187.1v-2.407h4.669v-.776h-4.687V51h5.682v2.349h-4.678v.825zm.232-4.617c.77 0 1.327-.483 1.327-1.21 0-.724-.557-1.2-1.327-1.2-.78 0-1.344.476-1.344 1.2 0 .727.564 1.21 1.344 1.21zm0 .836c-1.334 0-2.318-.845-2.318-2.045s.984-2.046 2.318-2.046c1.327 0 2.301.846 2.301 2.046 0 1.2-.974 2.045-2.3 2.045zM203 47.977v.858h-1.243v1.886h-1V46h1v1.977H203zm-5.884 6.217h4.933V55h-5.935v-2.36h4.642v-.726h-4.66v-.809h5.661v2.302h-4.64v.787zm2.272-7.821c0 2.331-1.331 3.906-4.003 4.622l-.378-.817c1.273-.333 2.168-.858 2.702-1.494l-2.564.202-.145-.828 3.156-.142c.078-.22.134-.454.164-.705h-2.883v-.838h3.951z"/><mask id="j" fill="#fff"><use xlink:href="#i"/></mask><path fill="#00559C" d="M209.956 55H211v-9h-1.044v9zm-4.89-2.977c1.438-.011 2.694-.08 4.135-.309l.11.835c-1.558.267-2.92.318-4.518.318h-.775v-3.554h3.17v-1.667H204v-.833h4.234v3.324h-3.168v1.886zm15.199-1.043c-1.471-.247-2.678-1.03-3.254-2.098-.571 1.08-1.796 1.851-3.267 2.098l-.392-.853c1.804-.268 3.118-1.41 3.118-2.633V47h1.069v.494c0 1.202 1.333 2.365 3.118 2.633l-.392.853zm.735 1.738h-3.52V56h-1.01v-3.282H213v-.863h8v.863z" mask="url(#j)"/><path fill="#005CA2" d="M111.989 5.805c-2.805 0-4.896 2.332-4.896 6.097 0 4.004 1.987 6.271 4.875 6.271 3.705 0 4.939-3.498 4.939-6.36 0-3.85-2.176-6.008-4.918-6.008m3.705-.836C118.79 6.884 119 10.426 119 11.902c0 .747-.062 1.473-.21 2.2-.647 3.323-3.138 5.898-6.737 5.898-3.978 0-7.053-2.728-7.053-7.99 0-5.148 3.181-8.01 7.01-8.01.9 0 2.28.131 3.684.97m7.984 14.443c1.173-1.097 1.793-1.8 1.793-2.77 0-.804-.446-1.584-1.545-1.584-.272 0-.801.039-1.258.511-.334.37-.371.69-.42 1.061-.05.33-.11.765-.607.765-.135 0-.604-.05-.604-.612 0-.231.112-1.265.766-1.954.556-.6 1.357-.83 2.16-.83 1.865 0 2.717 1.188 2.717 2.553 0 1.52-.89 2.528-2.852 4.176-.408.33-.891.765-1.334 1.16h3.99c.145.013.516.052.516.562 0 .498-.37.536-.517.549h-4.89c-.159 0-.593-.025-.593-.767 0-.369.125-.496.236-.625.43-.396.875-.803 1.332-1.2.11-.1.653-.586.778-.7l.332-.295z" mask="url(#j)"/></g></svg>