<svg xmlns="http://www.w3.org/2000/svg" xmlns:xlink="http://www.w3.org/1999/xlink" width="149" height="74"><defs><path id="a" d="M60.969 60.298c-1.512.85-3.229 1.382-5.154 1.593-2.002 0-3.76-.409-5.27-1.23-1.51-.82-2.771-1.965-3.781-3.433-1.012-1.467-1.777-3.203-2.297-5.212-.52-2.008-.78-4.199-.78-6.575 0-2.355.26-4.512.78-6.473.52-1.96 1.285-3.65 2.297-5.068a10.666 10.666 0 0 1 3.78-3.316c1.512-.793 3.269-1.188 5.271-1.188 1.944 0 3.667.395 5.168 1.188 1.5.791 2.767 1.897 3.796 3.316 1.03 1.418 1.81 3.109 2.34 5.068.53 1.961.794 4.118.794 6.473 0 2.376-.27 4.527-.809 6.458s-1.319 3.603-2.339 5.012a11.729 11.729 0 0 1-3.796 3.387m9.484-3.707a18.863 18.863 0 0 1-4.475 4.13 16.09 16.09 0 0 1-5.688 2.358c.385 1.138 1.02 2.273 1.906 3.403a16.244 16.244 0 0 0 3.175 3.056 17.038 17.038 0 0 0 4.115 2.215c1.511.57 3.085.854 4.721.854v.927a26.28 26.28 0 0 1-4.995-.478 35.372 35.372 0 0 1-9.254-3.14 40.15 40.15 0 0 1-3.927-2.26 31.817 31.817 0 0 1-3.234-2.419c-.952-.82-1.737-1.608-2.353-2.361a15.494 15.494 0 0 1-5.356-2.475 18.56 18.56 0 0 1-4.187-4.142 19.936 19.936 0 0 1-2.728-5.184 16.902 16.902 0 0 1-.981-5.634c0-2.452.471-4.754 1.414-6.908a17.461 17.461 0 0 1 3.912-5.632c1.665-1.604 3.633-2.868 5.905-3.795 2.271-.927 4.735-1.391 7.392-1.391 2.656 0 5.12.464 7.39 1.391 2.272.927 4.242 2.191 5.906 3.795a17.478 17.478 0 0 1 3.913 5.632c.943 2.154 1.414 4.456 1.414 6.908 0 1.97-.351 3.92-1.053 5.85a19.261 19.261 0 0 1-2.932 5.3zm12.529-35.503a11.183 11.183 0 0 1-2.655-3.672 10.712 10.712 0 0 1-.95-4.464c0-1.574.303-3.077.912-4.513a11.666 11.666 0 0 1 2.57-3.786c1.105-1.088 2.421-1.953 3.953-2.596 1.53-.642 3.219-.963 5.063-.963 1.18 0 2.27.16 3.275.483a11.47 11.47 0 0 1 2.738 1.274 11.225 11.225 0 0 1 2.194 1.83c.64.693 1.19 1.417 1.656 2.172l-1.618 1.094c-.93-1.81-1.97-3.14-3.125-3.983S94.516 2.7 93.023 2.7c-1.343 0-2.582.239-3.717.716a8.347 8.347 0 0 0-2.938 2.06c-.821.893-1.46 1.971-1.919 3.237-.457 1.265-.687 2.678-.687 4.24 0 1.572.251 2.989.753 4.247.502 1.259 1.186 2.334 2.052 3.229a8.877 8.877 0 0 0 3.05 2.056c1.166.48 2.42.718 3.764.718.978 0 1.863-.135 2.653-.406a7.2 7.2 0 0 0 2.127-1.142V13.26h-4.216v-.78h7.962v9.837c-.653.351-1.312.663-1.976.933a14.69 14.69 0 0 1-2.146.68c-.765.183-1.606.32-2.522.416-.917.094-1.957.14-3.124.14-1.845 0-3.549-.304-5.11-.915-1.563-.61-2.913-1.438-4.047-2.483zm24.805-13.801a5.627 5.627 0 0 1-1.675 1.143 5.91 5.91 0 0 1-2.004.5v-.774c.5-.138.975-.34 1.42-.605a5.652 5.652 0 0 0 1.168-.905c.331-.34.593-.708.78-1.105.189-.397.283-.802.283-1.219a1.3 1.3 0 0 0-.15-.631c-.102-.184-.22-.275-.358-.275a.653.653 0 0 0-.348.087 8.55 8.55 0 0 0-.292.18c-.1.061-.217.12-.349.177a1.32 1.32 0 0 1-.517.086 1.42 1.42 0 0 1-.63-.142 1.668 1.668 0 0 1-.519-.396c-.15-.17-.27-.372-.356-.604a2.133 2.133 0 0 1-.132-.766c0-.29.058-.556.178-.8.119-.247.282-.46.49-.643A2.414 2.414 0 0 1 106.384 0c.414 0 .803.091 1.167.273.364.184.677.435.94.755a3.88 3.88 0 0 1 .866 2.482c0 .757-.14 1.454-.422 2.096a5.387 5.387 0 0 1-1.149 1.681zM50.974 23.323v.617h-6.277v-.617h1.266V2.19h-1.266v-.617h6.277v.617H49.71v21.134h1.265zm-24.206.035v.617l-6.278-.035v-.617h1.25V2.19h-1.25v-.617l6.278.035v.617l-1.283-.035v9.309l11.709-9.894h2.447l-11.143 9.403L42.633 23.96h-4.762L25.485 12.612v10.711l1.283.035zm85.136 5.56h-1.431V50.74c0 1.758-.284 3.414-.852 4.968a10.78 10.78 0 0 1-2.657 4.084c-1.203 1.17-2.747 2.094-4.634 2.78-1.887.685-4.157 1.028-6.815 1.028-2.367 0-4.46-.343-6.28-1.029-1.818-.685-3.338-1.615-4.56-2.794a11.802 11.802 0 0 1-2.787-4.126c-.635-1.574-.953-3.249-.953-5.025V28.918h-1.708v-.616h9.067v.616H86.68V50.74c0 1.469.25 2.85.751 4.143a10.031 10.031 0 0 0 2.152 3.389c.933.966 2.053 1.728 3.363 2.287 1.309.56 2.772.842 4.389.842 1.635 0 3.108-.282 4.417-.842 1.31-.559 2.42-1.32 3.335-2.287a10.076 10.076 0 0 0 2.108-3.389 11.6 11.6 0 0 0 .736-4.143V28.918h-1.606v-.616h5.58v.616zM72.537 2.19v-.616h4.186v.616h-1.194v21.134h1.194v.617h-3.837v-.617h1.276L58.853 6.305h-.132v17.018h1.433v.617h-4.535v-.617h1.427V2.189H55.62v-.616h5.231v.616h-1.36L73.74 17.936h.15V2.19h-1.354zm42.289 15.488l.208.58-1.593.531c.473 1.284 1.19 2.31 2.176 3.047 1.085.81 2.363 1.217 3.83 1.217.552 0 1.098-.075 1.638-.226a4.646 4.646 0 0 0 1.44-.67 3.5 3.5 0 0 0 1.017-1.097c.257-.432.386-.932.386-1.5 0-.68-.177-1.286-.527-1.82a6.233 6.233 0 0 0-1.384-1.475 13.324 13.324 0 0 0-1.957-1.254c-.735-.39-1.487-.784-2.259-1.181a41.445 41.445 0 0 1-2.259-1.247 11.303 11.303 0 0 1-1.958-1.444 6.783 6.783 0 0 1-1.383-1.773c-.351-.655-.527-1.41-.527-2.266 0-.856.16-1.649.48-2.38.32-.73.79-1.365 1.412-1.907.62-.54 1.384-.962 2.286-1.264.904-.301 1.94-.454 3.106-.454 2.108 0 3.774.444 4.998 1.332 1.223.887 2.105 2.168 2.644 3.842l.12.285-3.189 1.33-.238-.568 1.25-.518a8.828 8.828 0 0 0-.72-1.53 5.802 5.802 0 0 0-1.241-1.454 5.332 5.332 0 0 0-1.666-.934c-.628-.22-1.337-.33-2.127-.33-.703 0-1.318.097-1.844.292a3.975 3.975 0 0 0-1.318.773 3.203 3.203 0 0 0-.791 1.086 3.048 3.048 0 0 0-.264 1.228c0 .591.18 1.13.537 1.614.357.485.834.945 1.43 1.379.597.433 1.27.852 2.024 1.255.753.404 1.522.812 2.306 1.228.784.415 1.552.85 2.305 1.303.754.452 1.428.946 2.024 1.48a6.922 6.922 0 0 1 1.43 1.757c.358.635.537 1.344.537 2.124 0 .881-.17 1.712-.508 2.491a5.66 5.66 0 0 1-1.506 2.04c-.665.58-1.5 1.038-2.503 1.378-1.004.34-2.165.51-3.483.51-1.066 0-2.023-.12-2.87-.358a7.366 7.366 0 0 1-2.23-1.03 6.68 6.68 0 0 1-1.647-1.642c-.403-.57-.734-1.223-1.016-1.935l-.02.008-.207-.582 3.651-1.27zM19.117 27.715l15.936 34.756h1.722v.616h-9.068v-.616h1.513L16.893 35.564 4.253 62.471h1.676v.616H0v-.616h1.366l16.336-34.756h1.415zM147.54 62.47H149v.617h-5.231v-.617h.884l-12.641-26.906-12.327 26.906h1.608v.617h-8.72v-.617h1.28l15.936-34.755h1.414L147.54 62.47z"/></defs><g fill="none" fill-rule="evenodd"><mask id="b" fill="#fff"><use xlink:href="#a"/></mask><use fill="#2D2E4F" xlink:href="#a"/><g fill="#2D2D51" mask="url(#b)"><path d="M-16-53h180v180H-16z"/></g></g></svg>